<svg xmlns="http://www.w3.org/2000/svg" width="2048" height="2048" viewBox="0 0 2048 2048">
  <defs>
    <linearGradient id="pageGradient" x1="12%" y1="0%" x2="100%" y2="100%">
      <stop offset="0%" stop-color="#07151f"/>
      <stop offset="54%" stop-color="#102c35"/>
      <stop offset="100%" stop-color="#1d3c3a"/>
    </linearGradient>
    <radialGradient id="accentGlow" cx="12%" cy="0%" r="70%">
      <stop offset="0%" stop-color="#48d0bb" stop-opacity="0.24"/>
      <stop offset="58%" stop-color="#48d0bb" stop-opacity="0.08"/>
      <stop offset="100%" stop-color="#48d0bb" stop-opacity="0"/>
    </radialGradient>
  </defs>

  <rect width="2048" height="2048" fill="url(#pageGradient)"/>
  <rect width="2048" height="2048" fill="url(#accentGlow)"/>

  <g opacity="0.15" fill="none" stroke="#48d0bb" stroke-width="10" stroke-linecap="round">
    <path d="M0 312c137 68 273 68 410 0s273-68 410 0 273 68 410 0 273-68 410 0 273 68 408 0"/>
    <path d="M0 624c137 68 273 68 410 0s273-68 410 0 273 68 410 0 273-68 410 0 273 68 408 0"/>
    <path d="M0 936c137 68 273 68 410 0s273-68 410 0 273 68 410 0 273-68 410 0 273 68 408 0"/>
    <path d="M0 1248c137 68 273 68 410 0s273-68 410 0 273 68 410 0 273-68 410 0 273 68 408 0"/>
    <path d="M0 1560c137 68 273 68 410 0s273-68 410 0 273 68 410 0 273-68 410 0 273 68 408 0"/>
  </g>

  <g fill="none" stroke="#48d0bb" stroke-width="112" stroke-linecap="round" stroke-linejoin="round">
    <circle cx="1024" cy="694" r="118"/>
    <path d="M1024 812v590"/>
    <path d="M764 994H650c0 222 178 408 374 408s374-186 374-408h-114"/>
  </g>
</svg>
