<svg xmlns="http://www.w3.org/2000/svg" width="1200" height="760" viewBox="0 0 1200 760">
  <rect width="1200" height="760" fill="#123f58"/>
  <g fill="none" stroke="#48d0bb" stroke-opacity=".18" stroke-width="2">
    <path d="M0 100c80 40 160 40 240 0s160-40 240 0 160 40 240 0 160-40 240 0 160 40 240 0"/>
    <path d="M0 240c80 40 160 40 240 0s160-40 240 0 160 40 240 0 160-40 240 0 160 40 240 0"/>
    <path d="M0 380c80 40 160 40 240 0s160-40 240 0 160 40 240 0 160-40 240 0 160 40 240 0"/>
    <path d="M0 520c80 40 160 40 240 0s160-40 240 0 160 40 240 0 160-40 240 0 160 40 240 0"/>
  </g>
  <g stroke="#f2c66d" stroke-opacity=".16">
    <path d="M120 0v760M260 0v760M400 0v760M540 0v760M680 0v760M820 0v760M960 0v760M1100 0v760"/>
    <path d="M0 80h1200M0 220h1200M0 360h1200M0 500h1200M0 640h1200"/>
  </g>
</svg>
